<mxfile host="" modified="2020-06-17T11:57:47.137Z" agent="5.0 (Macintosh; Intel Mac OS X 10_15_5) AppleWebKit/537.36 (KHTML, like Gecko) Code/1.45.1 Chrome/78.0.3904.130 Electron/7.2.4 Safari/537.36" etag="5y9biYsyt9NfymA-3rf3" version="13.1.3">
    <diagram id="6hGFLwfOUW9BJ-s0fimq" name="Page-1">
        <mxGraphModel dx="1378" dy="860" grid="1" gridSize="10" guides="1" tooltips="1" connect="1" arrows="1" fold="1" page="1" pageScale="1" pageWidth="827" pageHeight="1169" math="0" shadow="0">
            <root>
                <mxCell id="0"/>
                <mxCell id="1" parent="0"/>
                <mxCell id="10" style="edgeStyle=orthogonalEdgeStyle;rounded=0;orthogonalLoop=1;jettySize=auto;html=1;entryX=0;entryY=0.5;entryDx=0;entryDy=0;" edge="1" parent="1" source="2" target="3">
                    <mxGeometry relative="1" as="geometry"/>
                </mxCell>
                <mxCell id="11" style="edgeStyle=orthogonalEdgeStyle;rounded=0;orthogonalLoop=1;jettySize=auto;html=1;entryX=0;entryY=0.5;entryDx=0;entryDy=0;" edge="1" parent="1" source="2" target="4">
                    <mxGeometry relative="1" as="geometry"/>
                </mxCell>
                <mxCell id="12" style="edgeStyle=orthogonalEdgeStyle;rounded=0;orthogonalLoop=1;jettySize=auto;html=1;entryX=0;entryY=0.5;entryDx=0;entryDy=0;" edge="1" parent="1" source="2" target="5">
                    <mxGeometry relative="1" as="geometry"/>
                </mxCell>
                <mxCell id="2" value="系统" style="shape=umlActor;verticalLabelPosition=bottom;labelBackgroundColor=#333333;verticalAlign=top;html=1;outlineConnect=0;" vertex="1" parent="1">
                    <mxGeometry x="50" y="340" width="30" height="50" as="geometry"/>
                </mxCell>
                <mxCell id="13" style="edgeStyle=orthogonalEdgeStyle;rounded=0;orthogonalLoop=1;jettySize=auto;html=1;entryX=0;entryY=0.5;entryDx=0;entryDy=0;" edge="1" parent="1" source="3" target="6">
                    <mxGeometry relative="1" as="geometry"/>
                </mxCell>
                <mxCell id="14" style="edgeStyle=orthogonalEdgeStyle;rounded=0;orthogonalLoop=1;jettySize=auto;html=1;entryX=0;entryY=0.5;entryDx=0;entryDy=0;" edge="1" parent="1" source="3" target="7">
                    <mxGeometry relative="1" as="geometry"/>
                </mxCell>
                <mxCell id="15" style="edgeStyle=orthogonalEdgeStyle;rounded=0;orthogonalLoop=1;jettySize=auto;html=1;entryX=0;entryY=0.5;entryDx=0;entryDy=0;" edge="1" parent="1" source="3" target="8">
                    <mxGeometry relative="1" as="geometry"/>
                </mxCell>
                <mxCell id="16" style="edgeStyle=orthogonalEdgeStyle;rounded=0;orthogonalLoop=1;jettySize=auto;html=1;entryX=0;entryY=0.5;entryDx=0;entryDy=0;" edge="1" parent="1" source="3" target="9">
                    <mxGeometry relative="1" as="geometry"/>
                </mxCell>
                <mxCell id="17" value="includes" style="edgeLabel;html=1;align=center;verticalAlign=middle;resizable=0;points=[];" vertex="1" connectable="0" parent="16">
                    <mxGeometry x="-0.6463" relative="1" as="geometry">
                        <mxPoint as="offset"/>
                    </mxGeometry>
                </mxCell>
                <mxCell id="3" value="综合评分" style="ellipse;whiteSpace=wrap;html=1;labelBackgroundColor=#333333;" vertex="1" parent="1">
                    <mxGeometry x="160" y="170" width="120" height="80" as="geometry"/>
                </mxCell>
                <mxCell id="4" value="热心人评分" style="ellipse;whiteSpace=wrap;html=1;labelBackgroundColor=#333333;" vertex="1" parent="1">
                    <mxGeometry x="160" y="325" width="120" height="80" as="geometry"/>
                </mxCell>
                <mxCell id="5" value="咨询评分" style="ellipse;whiteSpace=wrap;html=1;labelBackgroundColor=#333333;" vertex="1" parent="1">
                    <mxGeometry x="160" y="460" width="120" height="80" as="geometry"/>
                </mxCell>
                <mxCell id="6" value="文章评分" style="ellipse;whiteSpace=wrap;html=1;labelBackgroundColor=#333333;" vertex="1" parent="1">
                    <mxGeometry x="355" y="30" width="110" height="60" as="geometry"/>
                </mxCell>
                <mxCell id="7" value="回答评分" style="ellipse;whiteSpace=wrap;html=1;labelBackgroundColor=#333333;" vertex="1" parent="1">
                    <mxGeometry x="355" y="110" width="120" height="60" as="geometry"/>
                </mxCell>
                <mxCell id="8" value="热心人评分" style="ellipse;whiteSpace=wrap;html=1;labelBackgroundColor=#333333;" vertex="1" parent="1">
                    <mxGeometry x="355" y="190" width="120" height="60" as="geometry"/>
                </mxCell>
                <mxCell id="9" value="咨询评分" style="ellipse;whiteSpace=wrap;html=1;labelBackgroundColor=#333333;" vertex="1" parent="1">
                    <mxGeometry x="354" y="270" width="116" height="60" as="geometry"/>
                </mxCell>
            </root>
        </mxGraphModel>
    </diagram>
</mxfile>